# xmcd
#
# Track frame offsets:
#	182
#	14775
#	30107
#	47605
#	60885
#	75382
#	100965
#	113677
#	139985
#	154365
#	169737
#	186005
#	205060
#	224177
#
# Disc length: 3373 seconds
#
# Revision: 4
# Processed by: cddbd v1.5.2PL0 Copyright (c) Steve Scherf et al.
# Submitted via: audiograbber 1.83.01
#
DISCID=ba0d2b0e
DTITLE=Billy Ocean - Love Really Hurts Without You
DYEAR=1999
DGENRE=Pop
TTITLE0=Love Really Hurts Without You
TTITLE1=Emotions In Motion
TTITLE2=On The Run (Hold On Brother)
TTITLE3=Whose Little Girl Are You
TTITLE4=Black As He's Painted
TTITLE5=On The Run (Hold On Brother) (Extended Remix)
TTITLE6=What's Gonna Happen To Our Love
TTITLE7=Wild Beautiful Woman
TTITLE8=Light Up The World With Sunshine
TTITLE9=Can You Feel It
TTITLE10=Eye Of A Storm
TTITLE11=Hungry For Love
TTITLE12=Super Woman - Super Love
TTITLE13=On The Run (Hold On Brother) (Maxi Version)
EXTD=TR.
EXTT0=
EXTT1=
EXTT2=
EXTT3=
EXTT4=
EXTT5=
EXTT6=
EXTT7=
EXTT8=
EXTT9=
EXTT10=
EXTT11=
EXTT12=
EXTT13=
PLAYORDER=
